# xmcd
#
# Track frame offsets:
#	150
#	14761
#	31632
#	56901
#	77761
#	104052
#	120866
#	146134
#	169880
#	191917
#	212401
#	239191
#	264105
#	284226
#	306767
#	329222
#
# Disc length: 4649 seconds
#
# Revision: 6
# Processed by: cddbd v1.5.2PL0 Copyright (c) Steve Scherf et al.
# Submitted via: Jack! The Knife 19 Blackthorn
#
DISCID=fb122710
DTITLE=Lucio Dalla - Qui Dove Il Mare Luccica [CD 2)
DYEAR=2012
DGENRE=Pop
TTITLE0=Piazza Grande
TTITLE1=4/3/1943
TTITLE2=Balla Balla Ballerino
TTITLE3=Vita
TTITLE4=Futura
TTITLE5=Anna E Marco
TTITLE6=Cara
TTITLE7=La Sera Dei Miracoli
TTITLE8=Viaggi Organizzati
TTITLE9=Siamo Dei
TTITLE10=Stella Di Mare
TTITLE11=Nuvolari
TTITLE12=Il Motore Del 2000
TTITLE13=Se Io Fossi Un Angelo
TTITLE14=Tutta La Vita
TTITLE15=Washington
EXTD=
EXTT0=
EXTT1=
EXTT2=
EXTT3=
EXTT4=
EXTT5=
EXTT6=
EXTT7=
EXTT8=
EXTT9=
EXTT10=
EXTT11=
EXTT12=
EXTT13=
EXTT14=
EXTT15=
PLAYORDER=
